<svg xmlns="http://www.w3.org/2000/svg" xmlns:xlink="http://www.w3.org/1999/xlink" version="1.1" id="Layer_1" x="0px" y="0px" width="730px" height="185px" viewBox="0 0 730 185" enable-background="new 0 0 730 185" xml:space="preserve">
<g>
	<path fill-rule="evenodd" clip-rule="evenodd" fill="#ffffff" d="M90.97 14.5l-3.999 27H75.975l-2 14h9.997l-7.997 48c0 4-1 8-1 12 c1 16 10 23 22 23c9.997 0 28.99-4.001 38.987-35h-7.998c-2.999 9-8.997 17-16.994 17c-4.998 0-7.997-2-7.997-8 c0-1 0-3 0-6l8.997-51h14.995l2-14h-14.995l5.998-31L90.97 14.5L90.97 14.5z"/>
	<path fill-rule="evenodd" clip-rule="evenodd" fill="#ffffff" d="M136.954 41.5l-15.995 96h27.991l10.996-70 c1.999-4 8.997-9 14.995-9c4.999 0 0 11 11 11c9.997 0 13.995-7 12.995-14c0-7-4.998-14-12.995-14c-9.997 0-16.994 6-22.992 12 l1.999-12H136.954L136.954 41.5z"/>
	<path fill-rule="evenodd" clip-rule="evenodd" fill="#ffffff" d="M210.929 15.5c0 9 8 16 16 16c7.997 0 14.995-7 14.995-16 c-1-8-7.997-15-15.994-15C216.927 0.5 210.9 7.5 210.9 15.5L210.929 15.5z M207.93 41.5l-9.997 62c-1 4-1 8-1 12 c1 16 10 23 22 23c9.997 0 28.99-4.001 38.987-35h-8.997c-1.999 9-8.997 17-15.994 17c-4.999 0-7.998-2-7.998-8 c0-1 0-3 0-6l10.996-65H207.93L207.93 41.5z"/>
	<path fill-rule="evenodd" clip-rule="evenodd" fill="#ffffff" d="M312.894 41.5l-29.989 21l9.997-60l-27.991 4l-21.992 131h26.991 l7.997-48c5.998-4 9.997-7 13.995-7c4.999 0 7 4 8 10c0 2 0 4-1 7l-1 7c-1 4-1 7-1 10c1 14 10 22 25 22 c8.997 0 24.992-3 33.988-35h-7.997c-3.999 10-6.998 17-14.995 17c-5.998 0-7.997-4-7.997-8c0-2 0-4 0-6l2-9c1-3 1-5 1-8 c-1-12-7.997-22-21.993-22c-1.999 0 34.988-26 34.988-26H312.894z"/>
	<path fill-rule="evenodd" clip-rule="evenodd" fill="#ffffff" d="M359.878 15.5c0 9 7 16 16 16c7.997 0 14.995-7 14.995-16 c-1-8-7.997-15-15.994-15C365.875 0.5 359.9 7.5 359.9 15.5L359.878 15.5z M356.879 41.5l-9.997 62c-1 4-1 8-1 12 c1 16 10 23 22 23c9.997 0 28.99-4.001 38.986-35h-8.997c-1.999 9-8.996 17-15.994 17c-4.998 0-7.997-2-7.997-8 c0-1 0-3 0-6l10.996-65H356.879L356.879 41.5z"/>
	<path fill-rule="evenodd" clip-rule="evenodd" fill="#ffffff" d="M450.847 67.5c1 13-6.998 36-5.998 49c0 11 7 22 24 22 c9.996 0 23.991-4.001 33.988-35h-7.998c-3.998 10-6.997 17-15.994 17c-5.998 0-7.997-4-7.997-9c0-10 7.997-34 6.997-49 c0-16-9.996-22-21.992-22c-5.998 0-13.995 2-21.992 11l1.999-10h-27.99l-15.994 96h26.99l10.996-62c1.999-9 6.998-17 13.995-17 C448.848 58.5 450.8 61.5 450.8 67.5L450.847 67.5L450.847 67.5z"/>
	<path fill-rule="evenodd" clip-rule="evenodd" fill="#ffffff" d="M554.811 41.5l-0.999 10v-1c-1-6-4.998-10-15.995-10 c-33.988 0-47.983 41-46.983 67c1 23 14 31 27 31c9.997 0 16.994-4.001 22.992-10l-1.999 10c-13.995 4-30.989 12-29.989 28 c0 13 10 19 22 19c12.995 0 28.99-5 32.988-33l2.999-13c10.996-4 25.991-11 31.989-36h-7.997c-4.999 16-10.996 23-22.992 27 l14.995-89H554.811L554.811 41.5z M543.814 52.5c5.998 0 8 5 8 7l-6.997 46c-2.999 9-9.997 15-14.995 15 c-3.998 0-9.996-1-9.996-15C518.823 86.5 527.8 52.5 543.8 52.5L543.814 52.5z M518.823 164.5c0-8 8.997-13 17.994-17v6 c-2 11-6.998 17-10.996 17C521.822 170.5 518.8 166.5 518.8 164.5L518.823 164.5z"/>
	<path fill-rule="evenodd" clip-rule="evenodd" fill="#ffffff" d="M605.794 6.5l-15.995 97c-0.999 4-0.999 8-0.999 12 c0.999 16 10 23 22 23c9.996 0 28.99-4.001 38.986-35h-8.997c-1.999 9-8.997 17-15.994 17c-4.998 0-7.997-2-7.997-8 c0-1 0-3 0-6l17.993-104L605.794 6.5L605.794 6.5z"/>
	<path fill-rule="evenodd" clip-rule="evenodd" fill="#ffffff" d="M697.762 41.5l-9.996 63c-2.999 9-7.997 16-14.995 16 c-3.998 0-5.998-4-5.998-9c0-1 0-3 1-5l10.996-65h-27.99l-9.997 62c-0.999 4-1.999 8-0.999 12c0 16 10 23 21 23 c6.998 0 14.995-2 22.992-11l-1.999 11c-13.995 4-30.989 12-29.99 28c0 13 10 19 22 19c12.995 0 28.99-5 32.988-33l2.999-13 c10.996-4 16.994-9 18.993-15c2-6 1-11 1-11c-1.999 5-6.998 13-18.993 17l14.995-89H697.762L697.762 41.5z M661.774 164.5 c0-8 8.997-13 17.994-17l-1 6c-1.999 11-5.998 17-9.996 17C664.773 170.5 661.8 166.5 661.8 164.5L661.774 164.5z"/>
	<path fill-rule="evenodd" clip-rule="evenodd" fill="#ffffff" d="M60.98 43.5c-5.998-4-12.996-5-18.993-5 c-12.996 0-31.989 4-32.989 25v5c0 0 1 5 2 7c0 0 1 2 1 3c3.999 8 14 14 21 18c4.998 4 7 7 7 10 c0 7-3.999 13-11.996 13c-4.998 0-9.997-3-9.997-9c0-4 1-8 4.999-11c-3.999-1-4.999-1-7.998-1c-11.996 0-14.995 10-14.995 18 c1 19 16 22 29 22c19.993 0 37.987-6 36.987-32c-1-25-32.989-19-33.988-39c0-4 0-6 1.999-8c2-2 4.999-2 8.997-2 c5.998 0 1 12 12 12c8.997 0 12.996-7 12.996-13C67.978 50.5 65 45.5 61 43.5z"/>
</g>
</svg>
